<svg id="Layer_1" data-name="Layer 1" xmlns="http://www.w3.org/2000/svg" xmlns:xlink="http://www.w3.org/1999/xlink" width="204" height="303.52" viewBox="0 0 204 303.52"><defs><style>.cls-1{fill:url(#linear-gradient);}.cls-2{fill:url(#linear-gradient-2);}.cls-3{fill:url(#linear-gradient-3);}.cls-4{fill:url(#linear-gradient-4);}.cls-5{fill:url(#linear-gradient-5);}.cls-6{fill:url(#linear-gradient-6);}.cls-7{fill:url(#linear-gradient-7);}.cls-8{fill:url(#linear-gradient-8);}.cls-9{fill:#592400;}.cls-10{fill:url(#linear-gradient-9);}.cls-11,.cls-16{fill:#fff;}.cls-11,.cls-18{opacity:0.2;}.cls-12{fill:#af8227;}.cls-13{fill:#ffe67d;}.cls-14{fill:#fff1b6;}.cls-15{opacity:0.3;}.cls-17{fill:#ffdb43;}.cls-19{opacity:0.3;}.cls-20{fill:#8b5e3c;}</style><linearGradient id="linear-gradient" x1="51.13" y1="303.74" x2="51.13" y2="0.21" gradientUnits="userSpaceOnUse"><stop offset="0" stop-color="#8b5e3c"/><stop offset="1" stop-color="#ffe431"/></linearGradient><linearGradient id="linear-gradient-2" x1="153.13" y1="303.72" x2="153.13" y2="0.22" gradientUnits="userSpaceOnUse"><stop offset="0" stop-color="#8b5e3c"/><stop offset="1" stop-color="#eaa211"/></linearGradient><linearGradient id="linear-gradient-3" x1="52.62" y1="300.57" x2="52.63" y2="3.62" gradientUnits="userSpaceOnUse"><stop offset="0" stop-color="#fab10a"/><stop offset="1" stop-color="#ffe431"/></linearGradient><linearGradient id="linear-gradient-4" x1="151.63" y1="300.57" x2="151.63" y2="3.62" xlink:href="#linear-gradient-3"/><linearGradient id="linear-gradient-5" x1="102.12" y1="290.89" x2="102.13" y2="19.18" gradientUnits="userSpaceOnUse"><stop offset="0" stop-color="#601d09"/><stop offset="1" stop-color="#ffcc43"/></linearGradient><linearGradient id="linear-gradient-6" x1="147.16" y1="287.51" x2="147.16" y2="18.89" gradientUnits="userSpaceOnUse"><stop offset="0" stop-color="#b86b00"/><stop offset="1" stop-color="#cc9e09"/></linearGradient><linearGradient id="linear-gradient-7" x1="56.96" y1="287.51" x2="56.96" y2="18.89" gradientUnits="userSpaceOnUse"><stop offset="0" stop-color="#eaa211"/><stop offset="1" stop-color="#ffe564"/></linearGradient><linearGradient id="linear-gradient-8" x1="102.12" y1="276.38" x2="102.13" y2="30.13" gradientUnits="userSpaceOnUse"><stop offset="0" stop-color="#fab10a"/><stop offset="0" stop-color="#fab10a"/><stop offset="0.4" stop-color="#fdcd1f"/><stop offset="0.74" stop-color="#fede2c"/><stop offset="1" stop-color="#ffe431"/></linearGradient><linearGradient id="linear-gradient-9" x1="100.71" y1="227.63" x2="100.71" y2="79.06" gradientUnits="userSpaceOnUse"><stop offset="0" stop-color="#b14e00"/><stop offset="1" stop-color="#a05827"/></linearGradient></defs><title>Gold</title><path class="cls-1" d="M101.18,303.42c-34.07-11.36-59.65-43.66-71.86-61.9C11.86,215.44.13,186.15,0.13,168.66V53.54L49.46,29l2.17,2.17v7.7l5-2.62V24.84l45.5-24.63V303.74Z" transform="translate(-0.13 -0.21)"/><path class="cls-2" d="M102.14,0.22l45.48,24.62v11.7l5,2.9V31.06l2.31-1.94,49.19,24.41V168.66c0,39.76-43.39,115.54-101.05,134.76l-0.9.3Z" transform="translate(-0.13 -0.21)"/><path class="cls-3" d="M3.13,55.39V168.66c0,32.47,43.5,113.42,99,131.92V3.63l-42.5,23V38l-8,4.4V31.13Z" transform="translate(-0.13 -0.21)"/><path class="cls-4" d="M201.13,55.39V168.66c0,39.47-43.5,113.42-99,131.92V3.62l42.5,23V38.26l8,4.68V31.13Z" transform="translate(-0.13 -0.21)"/><path class="cls-5" d="M97,288.4c-32.19-16.77-52.92-44.5-64.65-64.11-13.12-21.94-21.6-46.31-21.6-62.08l1.21-98,31.88-16L51.5,55.1v6.4l13.63-6.62V38.08l37-18.89,37.25,18.87V55.13l12.88,6.81V54.63l8.44-7.27,31.77,16.35,1,64.08v34.42c0,29.9-29.79,100.22-86.74,126.43l-4.9,2.25Z" transform="translate(-0.13 -0.21)"/><path class="cls-6" d="M102.13,18.89L139.46,38v16.5l12.79,6.61V53.79l8.54-6.67,31.67,16.64v97c0,29.67-29.59,98.64-86.15,124.67l-4.45,2" transform="translate(-0.13 -0.21)"/><path class="cls-7" d="M102.13,18.89L64.79,38v16.5L52.13,61.29V53.75L43.79,48l-32,15.8v97c0,15.61,8.42,39.77,21.46,61.57,11.66,19.49,32.27,46.23,64.25,62.88l4.35,2.26" transform="translate(-0.13 -0.21)"/><path class="cls-8" d="M152.13,53.79v19L129.46,60.46V44.13l-27.33-14-27.33,14V60.46L52.13,72.79v-19l-30.33,16v91c0,24.33,26.67,87.63,80.33,115.58,54.33-25,80.33-91.25,80.33-115.58v-91Z" transform="translate(-0.13 -0.21)"/><path class="cls-9" d="M114.13,164.46c4.67-1.33,47.33,22.33,47.33,22.33l-21.67-31,19.67-34.31c-32.33,25-45.33,24-45.33,24-2.67-35.67,20.67-69,20.67-69l-32.67,24.67L69.46,76.46s23.33,33.33,20.67,69c0,0-13,1-45.33-24l19.67,34.31-21.67,31s42.67-23.67,47.33-22.33c0,0,2.67,30-22.33,65.33,0,0,28.33-21.67,34.33-22.67,6,1,34.33,22.67,34.33,22.67C111.46,194.46,114.13,164.46,114.13,164.46Z" transform="translate(-0.13 -0.21)"/><path class="cls-10" d="M133,227c-8.52-6.35-25.93-19.29-30.67-20.08l-0.16,0L102,207c-4.74.79-22.9,14.32-31.42,20.67,23.5-34.75,20.53-62.13,20.5-62.42l-0.06-.68-0.66-.19a2.67,2.67,0,0,0-.74-0.09c-5.6,0-36.15,16.7-46.7,22.47l3-1.65,19.69-27.87-0.92-1.4L45,121.54l1.1,1.83c26.37,22.88,44.31,24,44.31,24l0.18-1.84c2.08-27.84-12.62-56.22-19.31-66.47L101.13,102l1.25,1,30.5-23.81c-6.69,10.19-21.27,38.45-19.18,66.28l0.33,2s14.59,1.29,43.6-23.27l-18.92,33.08L158.46,185c-10.55-5.76-38.27-20.8-43.87-20.8a2.67,2.67,0,0,0-.74.09l-0.66.19-0.06.68C113.1,165.5,110.38,194,133,227Z" transform="translate(-0.13 -0.21)"/><path class="cls-11" d="M102.13,3.62V300.57S65.79,292,33.79,242.79c-32.5-50-30.67-72-30.67-78V55.39l48.5-24.27V42.38l8-4.4V26.63Z" transform="translate(-0.13 -0.21)"/><polygon class="cls-12" points="129.33 43.91 139.33 37.8 139.33 54.3 129.33 60.25 129.33 43.91"/><polygon class="cls-13" points="64.67 37.8 74.67 43.91 74.67 60.25 64.67 54.3 64.67 37.8"/><path class="cls-14" d="M140.43,176.92c-22.27-11.42-24.85-11.34-26.37-11.51l0.09-1c1.84,0,5.41-.56,47.22,22.31C161.38,186.75,146.14,179.84,140.43,176.92Z" transform="translate(-0.13 -0.21)"/><path class="cls-14" d="M42.79,186.79c42.88-23.58,47-22.53,47.38-22.44l0,1.06c-0.18,0-3.74-.2-32.58,14.79C53.36,182.42,42.79,186.79,42.79,186.79Z" transform="translate(-0.13 -0.21)"/><g class="cls-15"><path class="cls-16" d="M141,133.21c-14.21,8.08-19.21,10.08-27,11l0.07,1.22c7.3,0.37,25.84-8.51,45.26-23.93C159.42,121.5,146.61,130,141,133.21Z" transform="translate(-0.13 -0.21)"/></g><g class="cls-15"><path class="cls-16" d="M63.26,133.21c14.21,8.08,19.21,10.08,27,11l-0.07,1.22c-7.3.37-25.84-8.51-45.26-23.93C44.89,121.5,57.69,130,63.26,133.21Z" transform="translate(-0.13 -0.21)"/></g><polygon class="cls-14" points="140.31 156.47 139.66 155.57 159.4 121.17 152.07 135.97 140.31 156.47"/><g class="cls-15"><polygon class="cls-16" points="140.21 154.68 139.69 155.58 161.31 186.54 152.66 172.47 140.21 154.68"/></g><g class="cls-15"><polygon class="cls-16" points="63.83 154.68 64.35 155.58 42.73 186.54 51.38 172.47 63.83 154.68"/></g><polygon class="cls-14" points="63.66 156.54 53.72 139.07 44.72 121.29 64.34 155.6 63.66 156.54"/><path class="cls-14" d="M67.83,229.77c1-.79,28.36-21.67,34.14-22.59a0.73,0.73,0,0,1,.33,0c0.32,0.09,5.3.57,34.17,22.64,0,0-10-6.33-13.88-9.09-14-10-19.46-12.2-20.41-12.54-4.68,2-14.14,8.36-21.89,13.87A116.68,116.68,0,0,1,67.83,229.77Z" transform="translate(-0.13 -0.21)"/><polygon class="cls-17" points="11.67 63.55 21.67 69.58 52 53.54 43.67 47.75 11.67 63.55"/><polygon class="cls-17" points="52 72.58 52 61.08 64.67 54.3 74.67 60.25 52 72.58"/><polygon class="cls-17" points="64.67 37.8 102.02 18.68 102 29.91 74.67 43.91 64.67 37.8"/><g class="cls-18"><polygon class="cls-16" points="154.04 75.97 127.25 61.51 127.25 45.19 102 32.17 76.75 45.27 76.75 61.6 49.83 75.91 49.83 56.87 21.64 71.86 11.79 65.95 11.79 63.62 21.7 69.56 51.83 53.54 51.96 72.45 74.75 60.25 74.79 43.87 102 29.92 129.33 43.95 129.38 60.25 152.04 72.62 152.04 53.64 182.38 69.54 182.38 71.87 154.04 56.95 154.04 75.97"/></g><path class="cls-14" d="M90.08,145.46l-1.08,0c1.28-20.18-6.13-40.59-12.3-53.75-4.11-8.76-7.07-15-7.07-15C69.85,77.05,93.17,111.26,90.08,145.46Z" transform="translate(-0.13 -0.21)"/><path class="cls-14" d="M114.17,145.46c-2.74-34.49,20.4-68.52,20.63-68.86L127.4,92.2c-6.23,13.15-13.52,33.22-12.24,53.21Z" transform="translate(-0.13 -0.21)"/><g class="cls-19"><path class="cls-16" d="M90.08,165.48l-1.08,0c-1,23.69-7,35.61-13.12,48.77C71.77,223,68,229.63,68,229.63,68.18,229.28,91.29,198.63,90.08,165.48Z" transform="translate(-0.13 -0.21)"/></g><g class="cls-19"><path class="cls-16" d="M114.17,165.48c-0.71,34.4,22.06,64,22.29,64.31,0,0-3.5-6.17-7.83-15.5-6.23-13.41-12.75-27.67-13.08-48.67Z" transform="translate(-0.13 -0.21)"/></g><polygon class="cls-20" points="102.05 303.51 102 303.52 101.94 300.38 102.18 300.3 102.05 303.51"/></svg>